<svg width="1024" height="1024" viewBox="0 0 1024 1024" xmlns="http://www.w3.org/2000/svg">
  <defs>
    <!-- Янтарный градиент для звезды (amberAccent) -->
    <linearGradient id="starGradient" x1="0%" y1="0%" x2="100%" y2="100%">
      <stop offset="0%" style="stop-color:#F8B400;stop-opacity:1" />
      <stop offset="100%" style="stop-color:#F59E0B;stop-opacity:1" />
    </linearGradient>
    
    <!-- Акцентный градиент для внутренней звезды -->
    <linearGradient id="accentGradient" x1="0%" y1="0%" x2="100%" y2="100%">
      <stop offset="0%" style="stop-color:#FF7E5F;stop-opacity:1" />
      <stop offset="100%" style="stop-color:#FD3A84;stop-opacity:1" />
    </linearGradient>
    
    <!-- Лавандовый акцентный градиент для свечения -->
    <linearGradient id="accentGlow" x1="0%" y1="0%" x2="100%" y2="100%">
      <stop offset="0%" style="stop-color:#FF7E5F;stop-opacity:0.6" />
      <stop offset="100%" style="stop-color:#FD3A84;stop-opacity:0.6" />
    </linearGradient>
    
    <!-- Тень для глубины -->
    <filter id="shadow" x="-20%" y="-20%" width="140%" height="140%">
      <feDropShadow dx="0" dy="8" stdDeviation="16" flood-color="#000000" flood-opacity="0.2"/>
    </filter>
    
    <!-- Тень для звезды -->
    <filter id="starShadow" x="-20%" y="-20%" width="140%" height="140%">
      <feDropShadow dx="0" dy="4" stdDeviation="8" flood-color="#000000" flood-opacity="0.2"/>
    </filter>
    
    <!-- Внутреннее свечение для объема -->
    <filter id="innerGlow" x="-50%" y="-50%" width="200%" height="200%">
      <feGaussianBlur stdDeviation="3" result="coloredBlur"/>
      <feMerge> 
        <feMergeNode in="coloredBlur"/>
        <feMergeNode in="SourceGraphic"/>
      </feMerge>
    </filter>
    
    <!-- Рассеивающее свечение для звезды -->
    <filter id="starGlow" x="-50%" y="-50%" width="200%" height="200%">
      <feGaussianBlur stdDeviation="12" result="coloredBlur"/>
      <feMerge> 
        <feMergeNode in="coloredBlur"/>
        <feMergeNode in="SourceGraphic"/>
      </feMerge>
    </filter>
  </defs>
  
  <!-- Основная звезда -->
  <g transform="translate(512, 512)">
    <!-- Рассеивающее свечение звезды -->
    <path d="M0 -500 L150 -150 L500 -150 L224 50 L374 400 L0 200 L-374 400 L-224 50 L-500 -150 L-150 -150 Z" 
          fill="url(#accentGlow)" 
          filter="url(#starGlow)"/>
    
    <!-- Основная звезда -->
    <path d="M0 -500 L150 -150 L500 -150 L224 50 L374 400 L0 200 L-374 400 L-224 50 L-500 -150 L-150 -150 Z" 
          fill="url(#starGradient)" 
          filter="url(#innerGlow)"/>
    
    <!-- Внутренняя звезда (меньше) -->
    <path d="M0 -300 L90 -90 L300 -90 L134 30 L224 240 L0 120 L-224 240 L-134 30 L-300 -90 L-90 -90 Z" 
          fill="url(#accentGradient)" 
          filter="url(#innerGlow)"/>
  </g>
  
  <!-- Точки для акцента с объемом -->
  <circle cx="200" cy="200" r="6" fill="rgba(248,180,0,0.3)" filter="url(#shadow)"/>
  <circle cx="824" cy="200" r="4" fill="rgba(248,180,0,0.2)" filter="url(#shadow)"/>
  <circle cx="200" cy="824" r="4" fill="rgba(248,180,0,0.2)" filter="url(#shadow)"/>
  <circle cx="824" cy="824" r="6" fill="rgba(248,180,0,0.3)" filter="url(#shadow)"/>
  
  <!-- Дополнительные точки для звезды -->
  <circle cx="300" cy="300" r="3" fill="rgba(248,180,0,0.4)" filter="url(#shadow)"/>
  <circle cx="724" cy="300" r="3" fill="rgba(248,180,0,0.4)" filter="url(#shadow)"/>
  <circle cx="300" cy="724" r="3" fill="rgba(248,180,0,0.4)" filter="url(#shadow)"/>
  <circle cx="724" cy="724" r="3" fill="rgba(248,180,0,0.4)" filter="url(#shadow)"/>
</svg>
